<svg xmlns="http://www.w3.org/2000/svg" viewBox="0 0 1200 300">
  <g>
    <path d="M424.39,457.22v.07l.14-.14C424.46,457.15,424.46,457.15,424.39,457.22Z" transform="translate(-399.35 -422)" fill="#69FF6C"/>
    <path d="M424.39,457.22v.07l.14-.14C424.46,457.15,424.46,457.15,424.39,457.22Z" transform="translate(-399.35 -422)" fill="#69FF6C"/>
    <path d="M829.53,534c-35.17,3.87-63.75,32.49-67.58,67.66a76.56,76.56,0,0,0,13,52,71.88,71.88,0,0,0,7.19,9c1.16,1.26,2.39,2.48,3.66,3.66a76.7,76.7,0,0,0,104.78,0l3.66-3.66a76.71,76.71,0,0,0,20.67-52.39A76.76,76.76,0,0,0,829.53,534Z" transform="translate(-399.35 -422)" fill="#69FF6C"/>
    <path d="M1096,629.08a24.36,24.36,0,0,0-17.26-9.26l-48.19-4v-1.55c0-106-86.29-192.28-192.29-192.28-95.75,0-175.37,70.36-189.9,162.12l-31.49-2.6a18.82,18.82,0,0,1-16.49-13.68c-10.8-39.07-27.64-83.34-66.78-105.15-2-1.14-4.12-2.2-6.22-3.2A118.59,118.59,0,0,0,495,449.63a141.12,141.12,0,0,0-33.74-1.18c-16.12,1.33-37.24,4.54-49.58,16a38,38,0,0,0-12.37,27.21c-.14,19.15,15.43,35.78,34.58,36.83,12.25.67,22-6.67,32.19-12.24,10.65-5.82,23.07-9.82,35.32-8.07a42.66,42.66,0,0,1,29.72,18.56c14.17,21.6,20.49,47.77,26.66,72.53.35,1.4.63,2.74,1,4.07,1.05,4.21,2.11,8.28,3.16,12.28,4.91,19.08,9.47,38.72,14,57.73,6,26.17,12.35,53.17,19.85,79.76,9.82,35.15,14.59,49.39,22.45,72.82,2.32,6.8,4.84,14.45,7.93,23.71,27.08,82,102.84,98.91,167.31,98.91,29.18,0,56-3.44,75.06-5.89L881.29,941C937.41,934,1001,926,1035,885.77c28.9-34.24,37.53-81.94,45.17-124,1.55-8.7,3.09-17.19,4.7-25.11,6.32-30.17,11.72-59.91,16.07-88.6A24.57,24.57,0,0,0,1096,629.08Zm-128.16,74.2a156.22,156.22,0,0,1-14.73,18.34l-98.9,98.9a22.54,22.54,0,0,1-31.86,0l-91.4-91.41c-2.6-2.41-5.12-4.9-7.5-7.49a149.35,149.35,0,0,1-14.73-18.34A156.58,156.58,0,0,1,681.57,601C687.91,524,751,462.26,828,457.4A157.22,157.22,0,0,1,967.79,703.28Z" transform="translate(-399.35 -422)" fill="#69FF6C"/>
    <circle cx="349.98" cy="608.18" r="47.82" fill="#69FF6C"/>
    <circle cx="529.51" cy="608.18" r="47.82" fill="#69FF6C"/>
    <text x="800" y="200" font-family="Arial" font-size="150" font-weight="bold" fill="#092517">PROX</text>
  </g>
</svg>